Czech Narrator for Swamp Tigers

• This enthralling film brings you face to face with the beautiful, yet terrifying, man-eating tigers that stalk the mangrove swamps of the Bay of Bengal, striking fear into the heart of every living being!

• Marvel at the skill and courage of cameraman Mike Herd in his amazing quest to capture these elusive creatures on film for the very first time.

• This extraordinary footage gives a fascinating glimpse into the private lives of two tiger families - bringing you so close you'll hardly dare breathe!


General
Complete name                    : Z:\Unsorted\Natural.Killers.-.Swamp.Tigers.[Czech].DvdRip.XviD-Knã\Natural.Killers.-.Swamp.Tigers.[Czech].DvdRip.XviD-Knã.avi
Format                           : AVI
Format/Info                      : Audio Video Interleave
File size                        : 896 MiB
Duration                         : 50mn 3s
Overall bit rate                 : 2 504 Kbps
Writing application              : VirtualDubMod 1.5.4.1 (build 2178/release)
Writing library                  : VirtualDubMod build 2178/release

Video
ID                               : 0
Format                           : MPEG-4 Visual
Format profile                   : Advanced Simple@L5
Format settings, BVOP            : 1
Format settings, QPel            : No
Format settings, GMC             : No warppoints
Format settings, Matrix          : Custom
Codec ID                         : XVID
Codec ID/Hint                    : XviD
Duration                         : 50mn 3s
Bit rate                         : 2 305 Kbps
Width                            : 640 pixels
Height                           : 368 pixels
Display aspect ratio             : 16:9
Frame rate                       : 25.000 fps
Color space                      : YUV
Chroma subsampling               : 4:2:0
Bit depth                        : 8 bits
Scan type                        : Progressive
Compression mode                 : Lossy
Bits/(Pixel*Frame)               : 0.391
Stream size                      : 825 MiB (92%)
Writing library                  : XviD 1.2.1 (UTC 2008-12-04)

Audio
ID                               : 1
Format                           : AC-3
Format/Info                      : Audio Coding 3
Mode extension                   : CM (complete main)
Codec ID                         : 2000
Duration                         : 50mn 2s
Bit rate mode                    : Constant
Bit rate                         : 192 Kbps
Channel(s)                       : 2 channels
Channel positions                : Front: L R
Sampling rate                    : 48.0 KHz
Bit depth                        : 16 bits
Compression mode                 : Lossy
Stream size                      : 68.7 MiB (8%)
Alignment                        : Split accross interleaves
Interleave, duration             : 96 ms (2.40 video frames)
Interleave, preload duration     : 96 ms
Language                         : Czech

